<svg xmlns="http://www.w3.org/2000/svg" xmlns:xlink="http://www.w3.org/1999/xlink" width="54" height="54" viewBox="0 0 54 54">
  <defs>
    <style>
      .cls-1 {fill: #848C99;}
      .cls-1, .cls-2, .cls-3 {fill-rule: evenodd;}
      .cls-2 {fill: #848C99;}
      .cls-3 {fill: url(#linear-gradient);}
    </style>
    <linearGradient id="linear-gradient" x1="90.5" y1="30" x2="90.5" y2="3" gradientUnits="userSpaceOnUse">
      <stop offset=".2" stop-color="#fff"/>
      <stop offset="1" stop-color="#fff" stop-opacity="0"/>
    </linearGradient>
  </defs>
  <g id="loading">
    <path id="logo" class="cls-1" d="M115.469,25.386a8.923,8.923,0,0,0-1.194-2.319,10.98,10.98,0,0,1,.061,1.968c-0.016.2-.039,0.4-0.072,0.6a7.416,7.416,0,0,1-.769,2.273,7.828,7.828,0,0,1-1.1,1.438,9.178,9.178,0,0,1-5.655,2.528l-0.179.008h-0.008c-0.205.012-.4,0.029-0.6,0.05h-0.014c-0.3.015-.593,0.032-0.878,0.052h0l-0.093,0c0.613-.135,1.272-0.278,1.984-0.478,4.674-1.314,5.71-4.691,5.71-4.691s-0.226.262-.5,0.555l0.022-.036c-0.082.093-.166,0.187-0.251,0.281-0.154.161-.3,0.312-0.424,0.416a7.785,7.785,0,0,1-1.118.807,12.932,12.932,0,0,1-5.326,1.114,23.125,23.125,0,0,0-3.748.486,9.815,9.815,0,0,0-3.266,1.19,8.523,8.523,0,0,0-2.871,2.421,10.021,10.021,0,0,1,2.205-3.1c0.4-.4.878-0.842,1.357-1.275,0.965-.874,1.935-1.7,2.3-2.009l0.02-.016,0.128-.108,0,0a9.348,9.348,0,0,0,.688-0.657,8.28,8.28,0,0,0,1.564-2.318c0.046-.105.088-0.207,0.127-0.3l0.015-.039a5.132,5.132,0,0,0,.3-1c0.034-.168.043-0.263,0.043-0.263h0c0.006-.044.011-0.089,0.018-0.134a4.11,4.11,0,0,0-2.422-4.429,5.524,5.524,0,0,0-4.119.033,6.159,6.159,0,0,0-2.8,2.023,2.476,2.476,0,0,0-.282.719,2.677,2.677,0,0,0,0,1.549A3.644,3.644,0,0,1,94.151,25c-0.017.035-.03,0.068-0.044,0.1-0.005.013-.013,0.028-0.018,0.041s-0.006.014-.008,0.021,0,0.012-.006.018a0.333,0.333,0,0,0-.01.069,0.369,0.369,0,0,0,.369.37,0.392,0.392,0,0,0,.3-0.122l0.028-.031,0.015-.017c0.135-.158.414-0.656,0.734-1.16l0.042-.066,0.047-.072a3.654,3.654,0,0,1,.908-1.066,4.29,4.29,0,0,0,1.339-1.272,4.99,4.99,0,0,0,.326-0.538l0.046-.09a2.9,2.9,0,0,1,.218-0.369A2.492,2.492,0,0,1,99,20.2a2.092,2.092,0,0,1,3.405,1.613h0a4.2,4.2,0,0,1-.5,2.186,8.61,8.61,0,0,1-2.814,3.154c-0.057.047-.114,0.093-0.172,0.139l-0.147.113-0.441.33-0.054.041c-0.464.348-.956,0.719-1.453,1.107-0.991.773-2.1,1.6-3.008,2.449a5.742,5.742,0,0,0-1.042,1.3l0,0.005c-0.07.118-.138,0.242-0.2,0.374l-0.006.012A5.5,5.5,0,0,0,92,35.259a5.763,5.763,0,0,0,3.3,5.333l0.108,0.051,0.1,0.047,0.137,0.06c0.268,0.116.566,0.231,0.9,0.338a20.6,20.6,0,0,0,13.6-.506,8.273,8.273,0,0,0,3.8-3.023,6.928,6.928,0,0,0,.686-1.319,6.833,6.833,0,0,0,.255-0.753c0.055-.2.1-0.391,0.138-0.6,0.024-.136.052-0.3,0.067-0.432a5.727,5.727,0,0,1-3.072,2.593l0.142-.119a10.584,10.584,0,0,0,1.187-1.185,11.1,11.1,0,0,0,2.484-5.259,10.478,10.478,0,0,0,.091-3.131,9.68,9.68,0,0,0-.453-1.971" transform="translate(-77 -3)"/>
    <g id="circle">
      <path id="circle_line" class="cls-2" d="M104,57a27,27,0,1,1,27-27A27,27,0,0,1,104,57Zm0-52a25,25,0,1,0,25,25A25,25,0,0,0,104,5Z" transform="translate(-77 -3)"/>
      <path id="circle_light" class="cls-3" d="M104,5A25,25,0,0,0,79,30H77A27,27,0,0,1,104,3V5Z" transform="translate(-77 -3)"/>
      <animateTransform attributeName="transform" begin="0s" dur="1s" type="rotate" from="0 27 27" to="360 27 27" repeatCount="indefinite"/>
    </g>
  </g>
  
</svg>